<svg width="164" height="164" viewBox="0 0 164 164" fill="none" xmlns="http://www.w3.org/2000/svg">
<circle cx="81.8889" cy="82.1574" r="52.2814" stroke="#DFF3EE"/>
<path d="M120.865 39.5038C109.553 29.1665 94.5974 23.7464 79.2887 24.4358C63.98 25.1253 49.5722 31.8679 39.2349 43.1803C28.8975 54.4927 23.4774 69.4482 24.1668 84.7569C24.8563 100.066 31.5989 114.473 42.9113 124.811L44.2803 123.313C33.3652 113.338 26.8595 99.4366 26.1942 84.6656C25.529 69.8946 30.7587 55.4643 40.733 44.5493C50.7073 33.6342 64.609 27.1285 79.38 26.4632C94.151 25.798 108.581 31.0277 119.496 41.002L120.865 39.5038Z" fill="#E0E8E6"/>
<path d="M86.8901 106.054C88.4923 106.054 89.8896 104.661 89.8896 103.063V96.0759H91.8924C93.0942 96.0759 93.8951 95.2767 93.8951 94.0783V74.123H69.8809V94.0785C69.8809 95.277 70.682 96.0761 71.8836 96.0761H73.8866V103.063C73.8866 104.661 75.2835 106.055 76.8861 106.055C78.4881 106.055 79.8852 104.661 79.8852 103.063V96.0761H83.8909V103.063C83.8907 104.661 85.2879 106.054 86.8901 106.054Z" fill="#A6D864"/>
<path d="M98.8979 94.0786C100.5 94.0786 101.897 92.6852 101.897 91.0869V77.1134C101.897 75.5238 100.5 74.123 98.8979 74.123C97.2955 74.123 95.8984 75.5239 95.8984 77.1134V91.0869C95.8984 92.685 97.2954 94.0786 98.8979 94.0786Z" fill="#A6D864"/>
<path d="M64.879 94.0786C66.4814 94.0786 67.8785 92.6852 67.8785 91.0869V77.1134C67.8785 75.5238 66.4816 74.123 64.879 74.123C63.2768 74.123 61.8799 75.5239 61.8799 77.1134V91.0869C61.88 92.685 63.2768 94.0786 64.879 94.0786Z" fill="#A6D864"/>
<path d="M91.4925 58.5612C91.0921 58.1593 90.496 58.1593 90.0956 58.5612L87.4094 61.2314L87.2855 61.3548C85.6927 60.5593 83.9069 60.162 81.9183 60.1582C81.9085 60.1582 81.8989 60.1579 81.8891 60.1579H81.8889C81.8788 60.1579 81.8695 60.1582 81.8595 60.1582C79.8709 60.162 78.0852 60.5593 76.4925 61.3548L76.3683 61.2314L73.6821 58.5612C73.2815 58.1593 72.6857 58.1593 72.2853 58.5612C71.8846 58.9608 71.8846 59.5539 72.2853 59.9533L74.8837 62.5454C74.0464 63.103 73.2872 63.7853 72.627 64.5657C71.0464 66.4343 70.0381 68.8664 69.8995 71.5014C69.8982 71.5289 69.8955 71.556 69.8943 71.5834C69.8858 71.7628 69.8818 71.9432 69.8818 72.1243H93.896C93.896 71.9433 93.8917 71.7629 93.8835 71.5834C93.8822 71.556 93.8795 71.5289 93.8779 71.5014C93.7396 68.8664 92.7311 66.4343 91.1505 64.5659C90.4906 63.7855 89.7311 63.1032 88.8938 62.5456L91.4925 59.9535C91.8932 59.5539 91.8932 58.9609 91.4925 58.5612ZM76.8831 68.6365C76.0545 68.6365 75.3827 67.9665 75.3827 67.14C75.3827 66.3135 76.0544 65.6435 76.8831 65.6435C77.7117 65.6435 78.3835 66.3135 78.3835 67.14C78.3835 67.9665 77.7117 68.6365 76.8831 68.6365ZM86.8946 68.6365C86.0661 68.6365 85.3943 67.9665 85.3943 67.14C85.3943 66.3135 86.066 65.6435 86.8946 65.6435C87.7232 65.6435 88.395 66.3135 88.395 67.14C88.395 67.9665 87.7233 68.6365 86.8946 68.6365Z" fill="#A6D864"/>
</svg>
