<svg width="164" height="164" viewBox="0 0 164 164" fill="none" xmlns="http://www.w3.org/2000/svg">
<path d="M97.4373 88.3932V90.0562C97.4373 91.8937 95.945 93.3821 94.1027 93.3821H66.5924C64.75 93.3821 63.2578 91.8937 63.2578 90.0562V74.258C63.2578 72.4205 64.75 70.9321 66.5924 70.9321H94.1027C95.945 70.9321 97.4373 72.4205 97.4373 74.258V75.921H99.1046C100.025 75.921 100.772 76.666 100.772 77.584V86.7302C100.772 87.6482 100.025 88.3932 99.1046 88.3932H97.4373Z" fill="#FAFAFA"/>
<path d="M68.2603 89.6404C67.57 89.6404 67.0098 89.0816 67.0098 88.3932V75.921C67.0098 75.2326 67.57 74.6738 68.2603 74.6738C68.9505 74.6738 69.5107 75.2326 69.5107 75.921V88.3932C69.5107 89.0816 68.9505 89.6404 68.2603 89.6404Z" fill="black"/>
<path d="M73.2621 89.6404C72.5719 89.6404 72.0117 89.0816 72.0117 88.3932V75.921C72.0117 75.2326 72.5719 74.6738 73.2621 74.6738C73.9524 74.6738 74.5126 75.2326 74.5126 75.921V88.3932C74.5126 89.0816 73.9524 89.6404 73.2621 89.6404Z" fill="black"/>
<path d="M78.2642 89.6404C77.5739 89.6404 77.0137 89.0816 77.0137 88.3932V75.921C77.0137 75.2326 77.5739 74.6738 78.2642 74.6738C78.9544 74.6738 79.5146 75.2326 79.5146 75.921V88.3932C79.5146 89.0816 78.9544 89.6404 78.2642 89.6404Z" fill="black"/>
<path d="M83.2661 89.6404C82.5758 89.6404 82.0156 89.0816 82.0156 88.3932V75.921C82.0156 75.2326 82.5758 74.6738 83.2661 74.6738C83.9564 74.6738 84.5166 75.2326 84.5166 75.921V88.3932C84.5166 89.0816 83.9564 89.6404 83.2661 89.6404Z" fill="black"/>
<path d="M88.2681 89.6404C87.5778 89.6404 87.0176 89.0816 87.0176 88.3932V75.921C87.0176 75.2326 87.5778 74.6738 88.2681 74.6738C88.9583 74.6738 89.5186 75.2326 89.5186 75.921V88.3932C89.5186 89.0816 88.9583 89.6404 88.2681 89.6404Z" fill="black"/>
<path d="M93.27 89.6404C92.5798 89.6404 92.0195 89.0816 92.0195 88.3932V75.921C92.0195 75.2326 92.5798 74.6738 93.27 74.6738C93.9603 74.6738 94.5205 75.2326 94.5205 75.921V88.3932C94.5205 89.0816 93.9603 89.6404 93.27 89.6404Z" fill="black"/>
<path d="M94.1032 94.6295H66.5929C64.0653 94.6295 62.0078 92.5791 62.0078 90.0564V74.2582C62.0078 71.7355 64.0653 69.6851 66.5929 69.6851H94.1032C96.6308 69.6851 98.6882 71.7355 98.6882 74.2582V74.674H99.0901C100.699 74.674 102.008 75.9794 102.008 77.5841V86.7304C102.008 88.3352 100.699 89.6406 99.0901 89.6406H98.6882V90.0564C98.6882 92.5791 96.6308 94.6295 94.1032 94.6295ZM66.5929 72.1795C65.4441 72.1795 64.5088 73.1124 64.5088 74.2582V90.0564C64.5088 91.2021 65.4441 92.1351 66.5929 92.1351H94.1032C95.2519 92.1351 96.1873 91.2021 96.1873 90.0564V88.3934C96.1873 87.7049 96.7475 87.1462 97.4378 87.1462H99.0901C99.3201 87.1462 99.5069 86.9599 99.5069 86.7304V77.5841C99.5069 77.3546 99.3201 77.1684 99.0901 77.1684H97.4378C96.7475 77.1684 96.1873 76.6096 96.1873 75.9212V74.2582C96.1873 73.1124 95.2519 72.1795 94.1032 72.1795H66.5929Z" fill="black"/>
<circle cx="82.008" cy="82.1574" r="52.2814" stroke="#DFF3EE"/>
<path d="M120.985 39.5038C109.672 29.1665 94.7165 23.7464 79.4078 24.4358C64.0992 25.1253 49.6914 31.8679 39.354 43.1803C29.0166 54.4927 23.5965 69.4482 24.286 84.7569C24.9754 100.066 31.718 114.473 43.0304 124.811L44.3994 123.313C33.4844 113.338 26.9786 99.4366 26.3134 84.6656C25.6481 69.8946 30.8779 55.4643 40.8521 44.5493C50.8264 33.6342 64.7282 27.1285 79.4992 26.4632C94.2701 25.798 108.7 31.0277 119.616 41.002L120.985 39.5038Z" fill="#E0E8E6"/>
</svg>
