<svg width="164" height="165" viewBox="0 0 164 165" fill="none" xmlns="http://www.w3.org/2000/svg">
<path d="M81.971 62.4722C81.254 62.4722 80.5375 62.5106 79.8246 62.5873C79.1712 62.6538 78.5258 62.763 77.8891 62.8955C77.7658 62.9212 77.6425 62.9483 77.5193 62.9767C73.7677 63.8286 70.3421 65.7418 67.6533 68.4867C67.4032 68.7423 67.1584 69.0055 66.9191 69.2762C59.6557 77.5931 60.5274 90.2081 68.8661 97.4526C76.8493 104.388 88.866 103.927 96.2909 96.3994C96.5414 96.1438 96.7861 95.8806 97.0251 95.6099C100.231 91.9691 101.997 87.2884 101.994 82.4431C101.994 71.4133 93.0295 62.4721 81.971 62.4722ZM68.543 69.4852C68.6484 69.3761 68.7579 69.2715 68.8653 69.1657C68.9895 69.0439 69.1129 68.9214 69.2398 68.8036C69.3512 68.6997 69.466 68.5998 69.5802 68.4987C69.709 68.3848 69.8371 68.271 69.9693 68.1612C70.0854 68.0633 70.2049 67.9694 70.3237 67.8749C70.4572 67.7684 70.5906 67.6619 70.7281 67.5594C70.8496 67.4682 70.9731 67.3796 71.0972 67.2931C71.2354 67.1946 71.3742 67.0934 71.515 67.0015C71.6412 66.9163 71.7687 66.8337 71.8968 66.7519C72.0397 66.6607 72.1831 66.5708 72.328 66.4856C72.4584 66.4079 72.5896 66.3316 72.7218 66.2566C72.8695 66.1727 73.0179 66.0908 73.1669 66.0109C73.3004 65.94 73.4339 65.8705 73.5674 65.8026C73.7196 65.726 73.8731 65.6521 74.0273 65.5796C74.1608 65.5163 74.2996 65.4531 74.4371 65.3932C74.5939 65.3266 74.7528 65.26 74.9116 65.1935C75.0498 65.1369 75.1873 65.0816 75.3268 65.0284C75.4883 64.9671 75.6518 64.9099 75.8153 64.8526C75.9548 64.804 76.0943 64.7554 76.2358 64.7095C76.402 64.6562 76.5695 64.607 76.7377 64.5584C76.8786 64.5178 77.018 64.4758 77.1595 64.4379C77.2136 64.4239 77.2677 64.4126 77.3217 64.3986C75.3461 66.3119 73.88 68.6865 73.0562 71.3072C71.472 70.8905 69.9384 70.3019 68.4829 69.5518C68.5049 69.5285 68.5236 69.5052 68.543 69.4852ZM67.5832 70.557C69.1864 71.4234 70.8866 72.0983 72.6484 72.5674C71.7847 75.5627 71.3313 78.6608 71.3008 81.7774H63.2983C63.4437 77.6676 64.9505 73.7218 67.5832 70.557ZM67.5832 94.3291C64.9507 91.1642 63.4438 87.2185 63.2983 83.1088H71.3008C71.3313 86.2253 71.7846 89.3234 72.6484 92.3187C70.8867 92.788 69.1865 93.4628 67.5832 94.3291ZM77.1555 100.451C77.0207 100.417 76.8812 100.373 76.7424 100.332C76.5735 100.283 76.404 100.234 76.2371 100.18C76.0963 100.135 75.9575 100.086 75.8187 100.037C75.6545 99.9809 75.4903 99.923 75.3281 99.8611C75.1893 99.8085 75.0525 99.7532 74.915 99.6973C74.7554 99.6308 74.5959 99.5642 74.4377 99.4976C74.3016 99.4377 74.1661 99.376 74.0313 99.3125C73.8758 99.2393 73.7209 99.1648 73.5641 99.0875C73.4306 99.021 73.2971 98.9544 73.1636 98.8818C73.0128 98.8013 72.8633 98.7187 72.7138 98.6335C72.5803 98.5596 72.4535 98.4838 72.3246 98.4065C72.1778 98.3187 72.0336 98.2281 71.8895 98.1356C71.7627 98.055 71.6359 97.9732 71.511 97.8893C71.3689 97.7934 71.2281 97.6936 71.0886 97.5937C70.9664 97.5065 70.8443 97.4193 70.7241 97.3274C70.586 97.2236 70.4505 97.1164 70.3157 97.0086C70.1975 96.9147 70.0801 96.8215 69.9646 96.725C69.8311 96.6145 69.7023 96.4993 69.5728 96.3848C69.4593 96.2843 69.3452 96.1851 69.2344 96.0826C69.1069 95.9641 68.9835 95.8409 68.8593 95.7191C68.7519 95.6133 68.6424 95.5087 68.537 95.4002C68.5176 95.3796 68.4989 95.3583 68.4796 95.3383C69.935 94.5879 71.4686 93.999 73.0528 93.5822C73.8768 96.2029 75.3429 98.5774 77.3184 100.491C77.2643 100.477 77.2096 100.466 77.1555 100.451ZM81.3037 101.03C78.4477 100.625 75.9441 97.6523 74.369 93.262C76.6463 92.7534 78.9702 92.4806 81.3037 92.4479V101.03ZM81.3037 91.1165C78.8283 91.1489 76.3634 91.4422 73.9499 91.9912C73.1118 89.1031 72.6697 86.1151 72.6357 83.1088H81.3037V91.1165ZM81.3037 81.7774H72.6357C72.6696 78.771 73.1117 75.783 73.9499 72.8949C76.3634 73.4439 78.8284 73.7371 81.3037 73.7697V81.7774ZM81.3037 72.4383C78.9701 72.4058 76.6463 72.133 74.369 71.6241C75.9441 67.2338 78.4477 64.2608 81.3037 63.8561V72.4383ZM96.359 70.557C98.9915 73.7219 100.498 77.6677 100.644 81.7774H92.6414C92.6108 78.6608 92.1576 75.5627 91.2938 72.5674C93.0555 72.098 94.7556 71.4232 96.359 70.557ZM86.7813 64.4346C86.9215 64.4692 87.0609 64.5131 87.1998 64.5537C87.3686 64.603 87.5382 64.6522 87.705 64.7062C87.8458 64.7514 87.9847 64.8 88.1235 64.8486C88.2877 64.9052 88.4519 64.9631 88.6141 65.025C88.7529 65.0776 88.8897 65.1329 89.0272 65.1888C89.1867 65.2554 89.3462 65.3219 89.5044 65.3885C89.6406 65.4484 89.7761 65.5101 89.9109 65.5736C90.0664 65.6468 90.2213 65.7214 90.3781 65.7986C90.5116 65.8652 90.6451 65.9317 90.7786 66.0043C90.9294 66.0848 91.0789 66.1674 91.2284 66.2526C91.3619 66.3265 91.4887 66.4024 91.6175 66.4796C91.7644 66.5675 91.9085 66.658 92.0527 66.7505C92.1795 66.8311 92.3063 66.913 92.4311 66.9968C92.5733 67.0927 92.7135 67.1919 92.8529 67.2917C92.9758 67.379 93.0979 67.4668 93.2187 67.558C93.3562 67.6612 93.491 67.7684 93.6265 67.8762C93.744 67.9694 93.8621 68.0626 93.9776 68.1598C94.1111 68.2703 94.2399 68.3855 94.3694 68.5C94.4828 68.6005 94.597 68.6997 94.7077 68.8022C94.8352 68.9207 94.9587 69.0439 95.0828 69.1657C95.1903 69.2715 95.2998 69.3761 95.4052 69.4846C95.4246 69.5052 95.4433 69.5265 95.4626 69.5465C94.0072 70.2969 92.4736 70.8858 90.8894 71.3026C90.0637 68.6816 88.5958 66.3073 86.6184 64.3946C86.6725 64.4086 86.7272 64.4199 86.7813 64.4346ZM82.6385 63.8561C85.4945 64.2608 87.998 67.2338 89.5732 71.6241C87.2959 72.1327 84.972 72.4056 82.6385 72.4383V63.8561ZM82.6385 73.7697C85.1139 73.7372 87.5788 73.444 89.9923 72.8949C90.8304 75.783 91.2725 78.771 91.3065 81.7774H82.6385V73.7697ZM82.6385 83.1088H91.3065C91.2725 86.1151 90.8305 89.1031 89.9923 91.9912C87.5788 91.4422 85.1139 91.149 82.6385 91.1165V83.1088ZM82.6385 101.03V92.4479C84.972 92.4803 87.2959 92.7532 89.5732 93.262C87.998 97.6523 85.4945 100.625 82.6385 101.03ZM95.3992 95.4009C95.2938 95.5094 95.185 95.6139 95.0775 95.7198C94.9534 95.8416 94.8292 95.9647 94.7017 96.0832C94.5909 96.1864 94.4768 96.283 94.3634 96.3861C94.2339 96.5006 94.1051 96.6151 93.9729 96.7256C93.8561 96.8228 93.7373 96.9167 93.6185 97.0112C93.485 97.1177 93.3515 97.2243 93.214 97.3268C93.0926 97.418 92.9691 97.5065 92.8449 97.593C92.7068 97.6916 92.568 97.7928 92.4271 97.8846C92.301 97.9698 92.1735 98.0524 92.0454 98.1336C91.9025 98.2255 91.7586 98.3143 91.6135 98.3999C91.48 98.4778 91.3526 98.5537 91.2211 98.6289C91.0733 98.7128 90.9247 98.7946 90.7752 98.8745C90.6417 98.9455 90.5082 99.015 90.3748 99.0829C90.2226 99.1594 90.0691 99.2333 89.9149 99.3059C89.7814 99.3691 89.6426 99.4324 89.5051 99.4923C89.3482 99.5589 89.1894 99.6254 89.0305 99.692C88.8924 99.7479 88.7549 99.8038 88.6161 99.8564C88.4532 99.9183 88.2897 99.9763 88.1255 100.033C87.9867 100.081 87.8479 100.13 87.707 100.175C87.5402 100.229 87.3733 100.278 87.2031 100.327C87.0636 100.368 86.9235 100.41 86.7826 100.448C86.7286 100.462 86.6745 100.473 86.6204 100.487C88.596 98.5735 90.0622 96.199 90.886 93.5782C92.4702 93.9949 94.0038 94.5836 95.4593 95.3337C95.4373 95.3576 95.4186 95.3809 95.3992 95.4009ZM96.359 94.3291C94.7557 93.4627 93.0556 92.7879 91.2938 92.3187C92.1575 89.3234 92.6108 86.2253 92.6414 83.1088H100.644C100.499 87.2185 98.9917 91.1643 96.359 94.3291Z" fill="black"/>
<circle cx="81.9943" cy="82.4184" r="52.2814" stroke="#DFF3EE"/>
<path d="M120.971 39.7648C109.658 29.4275 94.7029 24.0074 79.3942 24.6968C64.0855 25.3863 49.6777 32.1289 39.3403 43.4413C29.003 54.7537 23.5828 69.7092 24.2723 85.0179C24.9618 100.327 31.7043 114.734 43.0167 125.072L44.3858 123.574C33.4707 113.599 26.9649 99.6976 26.2997 84.9266C25.6344 70.1556 30.8642 55.7253 40.8385 44.8103C50.8127 33.8952 64.7145 27.3894 79.4855 26.7242C94.2565 26.0589 108.687 31.2887 119.602 41.263L120.971 39.7648Z" fill="#E0E8E6"/>
</svg>
