<svg width="164" height="164" viewBox="0 0 164 164" fill="none" xmlns="http://www.w3.org/2000/svg">
<circle cx="82.1115" cy="81.6794" r="52.2814" stroke="#DFF3EE"/>
<path d="M121.089 39.0258C109.777 28.6885 94.821 23.2683 79.5123 23.9578C64.2036 24.6473 49.7958 31.3898 39.4585 42.7022C29.1211 54.0146 23.701 68.9702 24.3905 84.2789C25.0799 99.5876 31.8225 113.995 43.1349 124.333L44.5039 122.835C33.5888 112.86 27.0831 98.9586 26.4178 84.1876C25.7526 69.4166 30.9824 54.9863 40.9566 44.0713C50.9309 33.1562 64.8326 26.6504 79.6036 25.9852C94.3746 25.3199 108.805 30.5497 119.72 40.524L121.089 39.0258Z" fill="#E0E8E6"/>
<path d="M98.3613 66.7183H65.8614C63.7935 66.7183 62.1113 68.396 62.1113 70.4585V92.9C62.1113 94.9625 63.7935 96.6403 65.8614 96.6403H98.3613C100.429 96.6403 102.111 94.9625 102.111 92.9V70.4585C102.111 68.396 100.429 66.7183 98.3613 66.7183V66.7183ZM98.3613 69.2117C98.5311 69.2117 98.6927 69.2469 98.8404 69.3083L82.1113 83.7698L65.3822 69.3083C65.5299 69.247 65.6914 69.2117 65.8613 69.2117H98.3613ZM98.3613 94.1467H65.8614C65.1717 94.1467 64.6113 93.5879 64.6113 92.8999V71.9427L81.2922 86.3618C81.5278 86.5651 81.8196 86.6662 82.1113 86.6662C82.4031 86.6662 82.6948 86.5652 82.9304 86.3618L99.6113 71.9427V92.9C99.6113 93.5879 99.051 94.1467 98.3613 94.1467V94.1467Z" fill="black"/>
</svg>
