<svg width="164" height="164" viewBox="0 0 164 164" fill="none" xmlns="http://www.w3.org/2000/svg">
<circle cx="81.9943" cy="81.6794" r="52.2814" stroke="#DFF3EE"/>
<path d="M120.971 39.0258C109.658 28.6885 94.7029 23.2683 79.3942 23.9578C64.0855 24.6473 49.6777 31.3898 39.3403 42.7022C29.003 54.0146 23.5828 68.9702 24.2723 84.2789C24.9618 99.5876 31.7043 113.995 43.0167 124.333L44.3858 122.835C33.4707 112.86 26.9649 98.9586 26.2997 84.1876C25.6344 69.4166 30.8642 54.9863 40.8385 44.0713C50.8127 33.1562 64.7145 26.6504 79.4855 25.9852C94.2565 25.3199 108.687 30.5497 119.602 40.524L120.971 39.0258Z" fill="#E0E8E6"/>
<path d="M99.6635 91.6218C99.4347 91.4463 99.1361 91.3901 98.8432 91.4677L95.5924 92.3292C95.0879 92.4628 94.7075 92.9632 94.7075 93.4932V97.5715C94.4453 97.4615 94.1529 97.3997 93.8445 97.3997C92.7225 97.3997 91.8096 98.2141 91.8096 99.2151C91.8096 100.216 92.7225 101.031 93.8445 101.031C94.9665 101.031 95.8793 100.216 95.8793 99.2151C95.8793 99.1898 95.8793 95.5714 95.8793 95.5714L99.144 94.7053C99.6485 94.5717 100.029 94.0713 100.029 93.5413V92.3913C100.029 92.0803 99.8958 91.8 99.6635 91.6218V91.6218ZM93.8445 99.8616C93.3767 99.8616 92.9814 99.5655 92.9814 99.215C92.9814 98.8646 93.3767 98.5685 93.8445 98.5685C94.3122 98.5685 94.7075 98.8646 94.7075 99.215C94.7074 99.5655 94.3122 99.8616 93.8445 99.8616ZM98.8297 93.579L95.8793 94.3618L95.8789 93.4989C95.8811 93.4867 95.895 93.4652 95.9065 93.4552L98.8571 92.6734L98.8574 93.5353C98.8551 93.5476 98.8413 93.5691 98.8297 93.579V93.579Z" fill="black"/>
<path d="M100.309 73.3442C100.163 73.0566 99.8097 72.9423 99.5214 73.0886C99.233 73.235 99.1183 73.5869 99.2651 73.8745C101.349 77.957 101.349 84.5997 99.2651 88.6821C99.1183 88.9697 99.233 89.3216 99.5214 89.468C99.6065 89.5113 99.6973 89.5317 99.7867 89.5317C100 89.5317 100.206 89.415 100.309 89.2123C101.396 87.0834 101.994 84.2658 101.994 81.2783C101.994 78.2907 101.396 75.4731 100.309 73.3442Z" fill="black"/>
<path d="M97.6601 85.819C97.7453 85.8623 97.836 85.8827 97.9255 85.8827C98.1388 85.8827 98.3447 85.7659 98.4481 85.5631C99.6742 83.1599 99.6742 79.3947 98.4481 76.9914C98.3013 76.7038 97.9485 76.5891 97.6601 76.7356C97.3718 76.882 97.2569 77.2339 97.4037 77.5215C98.4602 79.5925 98.4602 82.9621 97.4037 85.033C97.2569 85.3207 97.3718 85.6726 97.6601 85.819V85.819Z" fill="black"/>
<path d="M92.2227 71.0756C89.4912 68.3501 85.8586 66.8491 81.994 66.8491C78.1295 66.8491 74.4964 68.3501 71.7637 71.0756C66.1256 76.7015 66.1256 85.8556 71.7639 91.4817C74.1441 93.8547 77.2968 95.3331 80.641 95.6446C81.0888 95.6863 81.5369 95.7069 81.9842 95.7069C84.8337 95.7069 87.6416 94.8682 90.0115 93.2905C90.2807 93.1112 90.3532 92.7484 90.1736 92.4799C89.9938 92.2114 89.63 92.1392 89.3609 92.3183C84.1146 95.8112 77.0625 95.1116 72.5925 90.6552C67.411 85.4849 67.411 77.0723 72.5924 71.9021C75.1036 69.3973 78.4424 68.018 81.9939 68.018C85.5454 68.018 88.8836 69.3973 91.3938 71.9021C96.5775 77.0724 96.5775 85.4848 91.3938 90.6551C91.165 90.8834 91.165 91.2533 91.3938 91.4816C91.6227 91.7097 91.9936 91.7097 92.2225 91.4816C97.8631 85.8557 97.8631 76.7015 92.2227 71.0756V71.0756Z" fill="black"/>
<path d="M74.935 74.0543C75.1667 73.829 75.1715 73.459 74.9456 73.2279C74.7197 72.9967 74.3488 72.9921 74.1171 73.2173C71.9194 75.3539 70.709 78.2164 70.709 81.2774C70.709 87.4842 75.7716 92.5338 81.9945 92.5338C88.2172 92.5338 93.2799 87.4842 93.2799 81.2774C93.2799 75.0706 88.2171 70.021 81.9944 70.021C80.0071 70.021 78.0522 70.5442 76.3408 71.5342C76.0609 71.6961 75.9656 72.0538 76.1279 72.3329C76.2903 72.6121 76.6489 72.7073 76.9287 72.5454C78.4617 71.6585 80.2133 71.1898 81.9943 71.1898C87.571 71.1898 92.1078 75.7151 92.1078 81.2775C92.1078 86.8398 87.571 91.3651 81.9943 91.3651C76.4177 91.3651 71.8807 86.8398 71.8807 81.2775C71.8808 78.5343 72.9655 75.9691 74.935 74.0543V74.0543Z" fill="black"/>
<path d="M64.9468 66.301L66.3761 67.0236L67.1011 68.4505C67.2642 68.7692 67.4904 68.9308 67.7734 68.9308H67.775C67.9701 68.9303 68.245 68.8463 68.4461 68.449L69.1704 67.0236L70.5987 66.3014C70.9203 66.1395 71.0833 65.9136 71.0834 65.6301C71.0834 65.3464 70.9204 65.1205 70.5996 64.9589L69.1704 64.2364L68.4464 62.8116C68.2842 62.4914 68.0581 62.3287 67.7743 62.3281C67.7738 62.3281 67.7732 62.3281 67.7728 62.3281C67.5779 62.3281 67.3037 62.4115 67.1003 62.8091L66.376 64.2365L64.9475 64.9586C64.5485 65.1597 64.4643 65.4339 64.4639 65.6284C64.4633 65.9114 64.6254 66.1375 64.9468 66.301V66.301ZM67.0769 65.1925C67.1882 65.1363 67.2785 65.0461 67.3348 64.9352L67.7729 64.0718L68.2118 64.9355C68.2682 65.0464 68.3584 65.1364 68.4696 65.1925L69.3349 65.63L68.4695 66.0675C68.3584 66.1237 68.2681 66.2137 68.2118 66.3246L67.7732 67.1877L67.3347 66.3246C67.2783 66.2137 67.1881 66.1237 67.0769 66.0675L66.2115 65.63L67.0769 65.1925Z" fill="black"/>
<path d="M92.8125 67.4216H93.3956C93.7193 67.4216 93.9816 67.1602 93.9816 66.8376C93.9816 66.5151 93.7193 66.2537 93.3956 66.2537H92.8125C92.4888 66.2537 92.2266 66.5151 92.2266 66.8376C92.2266 67.1602 92.4888 67.4216 92.8125 67.4216Z" fill="black"/>
<path d="M96.0078 67.4216H96.5909C96.9146 67.4216 97.1769 67.1602 97.1769 66.8376C97.1769 66.5151 96.9146 66.2537 96.5909 66.2537H96.0078C95.6841 66.2537 95.4219 66.5151 95.4219 66.8376C95.4219 67.1602 95.6841 67.4216 96.0078 67.4216Z" fill="black"/>
<path d="M94.7012 69.3064C95.0248 69.3064 95.2871 69.045 95.2871 68.7223V68.141C95.2871 67.8183 95.0248 67.5569 94.7012 67.5569C94.3775 67.5569 94.1152 67.8183 94.1152 68.141V68.7223C94.1152 69.0449 94.3776 69.3064 94.7012 69.3064Z" fill="black"/>
<path d="M94.7012 66.1185C95.0248 66.1185 95.2871 65.8571 95.2871 65.5344V64.953C95.2871 64.6304 95.0248 64.3689 94.7012 64.3689C94.3775 64.3689 94.1152 64.6304 94.1152 64.953V65.5344C94.1152 65.8571 94.3776 66.1185 94.7012 66.1185Z" fill="black"/>
<path d="M71.1758 95.1343H70.5928C70.2692 95.1343 70.0068 95.3957 70.0068 95.7183C70.0068 96.0409 70.2692 96.3022 70.5928 96.3022H71.1758C71.4994 96.3022 71.7617 96.0409 71.7617 95.7183C71.7617 95.3957 71.4994 95.1343 71.1758 95.1343Z" fill="black"/>
<path d="M67.9805 95.1343H67.3975C67.0739 95.1343 66.8115 95.3957 66.8115 95.7183C66.8115 96.0409 67.0739 96.3022 67.3975 96.3022H67.9805C68.3041 96.3022 68.5665 96.0409 68.5665 95.7183C68.5665 95.3957 68.3041 95.1343 67.9805 95.1343Z" fill="black"/>
<path d="M69.2871 93.2476C68.9635 93.2476 68.7012 93.509 68.7012 93.8317V94.415C68.7012 94.7377 68.9635 94.9991 69.2871 94.9991C69.6107 94.9991 69.873 94.7377 69.873 94.415V93.8317C69.873 93.509 69.6107 93.2476 69.2871 93.2476Z" fill="black"/>
<path d="M69.2871 96.4375C68.9635 96.4375 68.7012 96.6989 68.7012 97.0216V97.6027C68.7012 97.9253 68.9635 98.1868 69.2871 98.1868C69.6107 98.1868 69.873 97.9253 69.873 97.6027V97.0216C69.873 96.699 69.6107 96.4375 69.2871 96.4375Z" fill="black"/>
<path d="M84.4131 80.3789C83.2518 80.5926 82.342 81.5019 82.342 82.4491C82.342 82.883 82.5287 83.277 82.8675 83.5582C83.1989 83.8335 83.6468 83.9787 84.1399 83.9787C84.298 83.9787 84.4609 83.9638 84.626 83.9334C85.786 83.7193 86.6947 82.81 86.6947 81.8632V76.8102C86.6947 76.7894 86.6935 76.7689 86.6914 76.7487C86.6751 76.4801 86.5539 76.2323 86.351 76.0621C86.1242 75.872 85.8171 75.7939 85.5066 75.8477L80.1463 76.7963C79.5941 76.8925 79.1614 77.3932 79.1614 77.9362V82.8594C78.8252 82.7624 78.444 82.7462 78.0496 82.819C76.8883 83.0327 75.9785 83.942 75.9785 84.8892C75.9785 85.3231 76.1652 85.7171 76.5039 85.9983C76.8354 86.2736 77.2833 86.4188 77.7763 86.4188C77.9344 86.4188 78.0973 86.4039 78.2623 86.3735C79.4236 86.1598 80.3334 85.2504 80.3334 84.3033V80.0462L85.5229 79.1277V80.419C85.187 80.3222 84.8067 80.3062 84.4131 80.3789ZM84.4131 82.7841C84.0231 82.8558 83.7462 82.767 83.6171 82.66C83.5457 82.6007 83.5139 82.5357 83.5139 82.4492C83.5139 82.111 83.9894 81.6455 84.6257 81.5283H84.626C84.7238 81.5103 84.8144 81.5024 84.8974 81.5024C85.1441 81.5024 85.3229 81.5722 85.4193 81.6521C85.4909 81.7115 85.5227 81.7766 85.5227 81.8633C85.5227 82.2012 85.0481 82.6669 84.4131 82.7841V82.7841ZM78.0495 85.2242C77.6591 85.2957 77.3824 85.2071 77.2536 85.1001C77.1822 85.0408 77.1504 84.9758 77.1504 84.8893C77.1504 84.5512 77.6259 84.0856 78.2622 83.9684C78.3604 83.9504 78.4514 83.9425 78.5347 83.9425C78.7823 83.9425 78.9616 84.0123 79.0582 84.0925C79.1296 84.1518 79.1614 84.2169 79.1614 84.3034C79.1613 84.6415 78.6859 85.107 78.0495 85.2242ZM80.3332 78.8592V77.9603C80.3383 77.9547 80.3453 77.9491 80.3494 77.9477L85.5227 77.0321V77.9407L80.3332 78.8592Z" fill="black"/>
<path d="M64.7233 73.8745C64.8701 73.5869 64.7553 73.235 64.4669 73.0886C64.1784 72.9423 63.8257 73.0566 63.6789 73.3443C62.5925 75.4731 61.9941 78.2909 61.9941 81.2783C61.9941 84.2658 62.5925 87.0835 63.6789 89.2124C63.7823 89.4151 63.9881 89.5319 64.2016 89.5319C64.291 89.5319 64.3818 89.5113 64.4669 89.4681C64.7552 89.3217 64.8701 88.9698 64.7233 88.6822C62.6398 84.5997 62.6398 77.957 64.7233 73.8745Z" fill="black"/>
<path d="M66.3256 76.7353C66.037 76.5892 65.6844 76.7041 65.5379 76.9917C64.3142 79.3949 64.3142 83.1597 65.5379 85.5627C65.6412 85.7656 65.8471 85.8826 66.0608 85.8826C66.15 85.8826 66.2406 85.8621 66.3256 85.8191C66.6141 85.673 66.7293 85.3211 66.5827 85.0334C65.528 82.9623 65.528 79.5922 66.5827 77.5211C66.7292 77.2332 66.6141 76.8815 66.3256 76.7353V76.7353Z" fill="black"/>
</svg>