<svg width="164" height="165" viewBox="0 0 164 165" fill="none" xmlns="http://www.w3.org/2000/svg">
<circle cx="82.008" cy="82.4184" r="52.2814" stroke="#DFF3EE"/>
<path d="M120.985 39.7648C109.672 29.4275 94.7165 24.0074 79.4078 24.6968C64.0992 25.3863 49.6914 32.1289 39.354 43.4413C29.0166 54.7537 23.5965 69.7092 24.286 85.0179C24.9754 100.327 31.718 114.734 43.0304 125.072L44.3994 123.574C33.4844 113.599 26.9786 99.6976 26.3134 84.9266C25.6481 70.1556 30.8779 55.7253 40.8521 44.8103C50.8264 33.8952 64.7282 27.3894 79.4992 26.7242C94.2701 26.0589 108.7 31.2887 119.616 41.263L120.985 39.7648Z" fill="#E0E8E6"/>
<path d="M83.8745 102.366H80.1411C78.8795 102.366 77.8145 101.424 77.6645 100.172L77.2661 97.0535C76.4711 96.7958 75.7045 96.4783 74.9761 96.1076L72.4861 98.0376C71.4761 98.8172 70.0545 98.7275 69.1778 97.8282L66.5528 95.21C65.6578 94.3439 65.5678 92.9259 66.3495 91.9202L68.2845 89.435C67.9111 88.7086 67.5928 87.9439 67.3361 87.151L64.2028 86.7537C62.9528 86.6007 62.0078 85.5385 62.0078 84.2801V80.5565C62.0078 79.2981 62.9528 78.2358 64.2078 78.0862L67.3345 77.6889C67.5928 76.896 67.9111 76.1313 68.2828 75.4049L66.3495 72.9213C65.5661 71.914 65.6578 70.4943 66.5611 69.6199L69.1861 67.0017C70.0545 66.1091 71.4778 66.021 72.4845 66.7989L74.9745 68.7306C75.7028 68.3599 76.4695 68.0424 77.2661 67.7847L77.6645 64.6595C77.8145 63.4128 78.8795 62.4702 80.1411 62.4702H83.8745C85.1361 62.4702 86.2011 63.4128 86.3511 64.6645L86.7495 67.783C87.5461 68.0407 88.3128 68.3582 89.0411 68.7289L91.5311 66.7989C92.5428 66.0193 93.9628 66.1091 94.8395 67.0101L97.4645 69.6282C98.3595 70.4943 98.4495 71.9123 97.6678 72.918L95.7328 75.4032C96.1061 76.1296 96.4245 76.8943 96.6811 77.6873L99.8145 78.0846C101.063 78.2358 102.008 79.2981 102.008 80.5565V84.2801C102.008 85.5385 101.063 86.6007 99.8078 86.7503L96.6811 87.1476C96.4228 87.9406 96.1045 88.7052 95.7328 89.4317L97.6678 91.9152C98.4511 92.9226 98.3595 94.3406 97.4561 95.215L94.8311 97.8331C93.9628 98.7258 92.5395 98.8172 91.5328 98.0359L89.0411 96.106C88.3128 96.4783 87.5461 96.7958 86.7511 97.0518L86.3528 100.177C86.2011 101.424 85.1361 102.366 83.8745 102.366V102.366ZM74.8911 94.2874C75.0295 94.2874 75.1711 94.3223 75.2978 94.3921C76.2161 94.9041 77.2111 95.3164 78.2545 95.6156C78.5745 95.707 78.8095 95.9796 78.8511 96.3088L79.3178 99.9659C79.3678 100.383 79.7295 100.704 80.1411 100.704H83.8745C84.2861 100.704 84.6478 100.383 84.6961 99.9742L85.1645 96.3104C85.2061 95.9813 85.4411 95.7087 85.7611 95.6172C86.8045 95.318 87.7995 94.9058 88.7178 94.3938C89.0095 94.2309 89.3728 94.2591 89.6345 94.4636L92.5511 96.7244C92.8861 96.9837 93.3561 96.9621 93.6428 96.6678L96.2845 94.033C96.5861 93.7405 96.6095 93.2717 96.3495 92.9359L94.0828 90.0268C93.8778 89.7641 93.8495 89.4034 94.0128 89.1125C94.5261 88.1966 94.9395 87.2041 95.2395 86.1635C95.3311 85.8444 95.6045 85.61 95.9345 85.5684L99.6011 85.1029C100.019 85.0514 100.341 84.6907 100.341 84.2801V80.5565C100.341 80.1459 100.019 79.7851 99.6095 79.7369L95.9361 79.2698C95.6061 79.2282 95.3328 78.9939 95.2411 78.6747C94.9411 77.6341 94.5278 76.6416 94.0145 75.7257C93.8511 75.4348 93.8778 75.0741 94.0845 74.8114L96.3511 71.9023C96.6128 71.5665 96.5895 71.0978 96.2961 70.8152L93.6545 68.1803C93.3628 67.8778 92.8911 67.8545 92.5545 68.1155L89.6378 70.3763C89.3728 70.5808 89.0111 70.609 88.7195 70.4461C87.8045 69.9341 86.8095 69.5235 85.7628 69.2226C85.4428 69.1312 85.2078 68.8586 85.1661 68.5294L84.6995 64.8723C84.6478 64.4534 84.2861 64.1326 83.8745 64.1326H80.1411C79.7295 64.1326 79.3678 64.4534 79.3195 64.8623L78.8511 68.5261C78.8095 68.8553 78.5745 69.1279 78.2545 69.221C77.2078 69.5202 76.2128 69.9325 75.2978 70.4428C75.0061 70.6074 74.6445 70.5774 74.3795 70.3746L71.4628 68.1139C71.1261 67.8529 70.6578 67.8761 70.3728 68.1687L67.7311 70.8052C67.4295 71.0978 67.4061 71.5665 67.6661 71.9023L69.9328 74.8114C70.1378 75.0741 70.1661 75.4348 70.0028 75.7257C69.4878 76.6416 69.0761 77.6341 68.7761 78.6747C68.6845 78.9939 68.4111 79.2282 68.0811 79.2698L64.4145 79.7353C63.9961 79.7851 63.6745 80.1459 63.6745 80.5565V84.2801C63.6745 84.6907 63.9961 85.0514 64.4061 85.0996L68.0795 85.5667C68.4095 85.6083 68.6828 85.8427 68.7745 86.1619C69.0745 87.2025 69.4878 88.1949 70.0011 89.1108C70.1645 89.4018 70.1378 89.7625 69.9311 90.0251L67.6645 92.9342C67.4028 93.27 67.4261 93.7388 67.7195 94.0214L70.3611 96.6562C70.6528 96.9571 71.1211 96.9804 71.4611 96.721L74.3778 94.4603C74.5295 94.3472 74.7095 94.2874 74.8911 94.2874V94.2874Z" fill="black"/>
<path d="M82.0082 90.73C77.4132 90.73 73.6748 87.0013 73.6748 82.4182C73.6748 77.8351 77.4132 74.1064 82.0082 74.1064C86.6032 74.1064 90.3416 77.8351 90.3416 82.4182C90.3416 87.0013 86.6032 90.73 82.0082 90.73ZM82.0082 75.7688C78.3315 75.7688 75.3415 78.7511 75.3415 82.4182C75.3415 86.0854 78.3315 89.0676 82.0082 89.0676C85.6849 89.0676 88.6749 86.0854 88.6749 82.4182C88.6749 78.7511 85.6849 75.7688 82.0082 75.7688Z" fill="black"/>
</svg>
